<svg xmlns="http://www.w3.org/2000/svg" viewBox="0 0 32 32" fill="none">
  <rect width="32" height="32" rx="6" fill="#0f766e"/>
  <path
    d="M10 11.5c0-1.1.9-2 2-2h1.2c.6 0 1.1.5 1.1 1.1v1.1c0 .6-.5 1.1-1.1 1.1H12c-.6 0-1.1-.5-1.1-1.1V11.5zm8.8 0c0-1.1.9-2 2-2H22c.6 0 1.1.5 1.1 1.1v1.1c0 .6-.5 1.1-1.1 1.1h-1.2c-.6 0-1.1-.5-1.1-1.1V11.5zM9 14.5h14"
    stroke="#ecfdf5"
    stroke-width="1.8"
    stroke-linecap="round"
  />
  <path
    d="M16 14.5v10.5M12.5 22.5h7"
    stroke="#ecfdf5"
    stroke-width="1.8"
    stroke-linecap="round"
  />
  <circle cx="16" cy="14.5" r="2.2" stroke="#a7f3d0" stroke-width="1.4"/>
</svg>
